# xmcd CD database file
#
# Track frame offsets:
#	150
#	27695
#	42245
#	68330
#	88877
#	112145
#	132845
#	158307
#	187895
#	214120
#
# Disc length: 3274 seconds
#
# Revision: 0
# Processed by: cddbd v1.4PL0 Copyright (c) Steve Scherf et al.
# Submitted via: CDex 1.51
#
DISCID=820cc80a
DTITLE=Lionel Hampton - In Vienna 1954 Vol 1
DYEAR=1954
DGENRE=Jazz
TTITLE0=Chase
TTITLE1=Blue Boy
TTITLE2=Medium Blues
TTITLE3=Rock, Baby, Rock
TTITLE4=Body And Soul
TTITLE5=How High The Moon
TTITLE6=The High And The Mighty Tenderly
TTITLE7=Vibes Boogie
TTITLE8=Star Dust
TTITLE9=Jam Blues
EXTD=YEAR: 1954
EXTT0=
EXTT1=
EXTT2=
EXTT3=
EXTT4=
EXTT5=
EXTT6=
EXTT7=
EXTT8=
EXTT9=
PLAYORDER=
